<svg xmlns="http://www.w3.org/2000/svg" viewBox="0 0 1280 640">
  <rect width="1280" height="640" fill="#1A1D38"/>
  <g transform="translate(122.3 168.1) scale(0.44492)">
    <path fill="#FFFFFF" fill-rule="evenodd" d="M 20.0 256.0 A 236.0 236.0 0 1 0 492.0 256.0 A 236.0 236.0 0 1 0 20.0 256.0 Z M 44.0 274.0 L 468.0 274.0 C 472.0 214.0 440.0 172.0 392.0 146.0 C 384.0 118.0 368.0 82.0 356.0 64.0 C 338.0 90.0 314.0 122.0 298.0 134.0 C 290.0 156.0 222.0 156.0 214.0 134.0 C 198.0 122.0 174.0 90.0 156.0 64.0 C 144.0 82.0 128.0 118.0 120.0 146.0 C 72.0 172.0 40.0 214.0 44.0 274.0 Z"/>
  </g>
  <g transform="translate(397.2 319.0) scale(0.15226)">
    <path fill="#FFFFFF" d="M76.299560546875 0.0V-492.500244140625H177.201171875V-418.7508544921875H193.101318359375Q207.201171875 -449.300537109375 243.0009765625 -475.2503662109375Q278.80078125 -501.2001953125 349.6505126953125 -501.2001953125Q405.900634765625 -501.2001953125 449.57562255859375 -476.27508544921875Q493.2506103515625 -451.3499755859375 518.1255493164062 -405.5499267578125Q543.00048828125 -359.7498779296875 543.00048828125 -296.0V0.0H440.098876953125V-288.099853515625Q440.098876953125 -352.499267578125 408.22418212890625 -382.9490966796875Q376.3494873046875 -413.39892578125 319.7498779296875 -413.39892578125Q255.80029296875 -413.39892578125 217.500732421875 -371.0491943359375Q179.201171875 -328.699462890625 179.201171875 -248.8502197265625V0.0Z M787.7493896484375 200.0V109.5986328125H1062.6490478515625Q1091.3489990234375 109.5986328125 1091.3489990234375 79.5986328125V-71.6495361328125H1075.4488525390625Q1066.0489501953125 -52.19970703125 1047.4740600585938 -33.62481689453125Q1028.899169921875 -15.0499267578125 997.9743041992188 -3.17498779296875Q967.0494384765625 8.699951171875 919.599609375 8.699951171875Q863.699462890625 8.699951171875 819.8494873046875 -16.22515869140625Q775.99951171875 -41.1502685546875 751.1245727539062 -87.100341796875Q726.2496337890625 -133.0504150390625 726.2496337890625 -196.1502685546875V-492.500244140625H829.1512451171875V-204.0504150390625Q829.1512451171875 -140.0009765625 861.0259399414062 -109.5511474609375Q892.900634765625 -79.101318359375 949.500244140625 -79.101318359375Q1013.4498291015625 -79.101318359375 1051.7493896484375 -121.27606201171875Q1090.0489501953125 -163.4508056640625 1090.0489501953125 -243.300048828125V-492.500244140625H1192.9505615234375V100.59912109375Q1192.9505615234375 146.3494873046875 1166.6253051757812 173.17474365234375Q1140.300048828125 200.0 1094.1497802734375 200.0Z M1537.5496826171875 14.0Q1485.2496337890625 14.0 1443.4246215820312 -4.1500244140625Q1401.599609375 -22.300048828125 1377.2745971679688 -57.27508544921875Q1352.9495849609375 -92.2501220703125 1352.9495849609375 -142.2001953125Q1352.9495849609375 -192.500244140625 1377.2745971679688 -226.12530517578125Q1401.599609375 -259.7503662109375 1444.2246704101562 -276.72540283203125Q1486.8497314453125 -293.700439453125 1540.7498779296875 -293.700439453125H1691.4488525390625V-325.5501708984375Q1691.4488525390625 -368.9495849609375 1665.2491455078125 -395.12432861328125Q1639.0494384765625 -421.299072265625 1585.099853515625 -421.299072265625Q1532.1502685546875 -421.299072265625 1504.0756225585938 -396.29931640625Q1476.0009765625 -371.299560546875 1466.901123046875 -330.6500244140625L1371.19970703125 -361.9505615234375Q1383.19970703125 -401.700439453125 1409.5247192382812 -434.2503662109375Q1435.8497314453125 -466.80029296875 1479.8247680664062 -486.6502685546875Q1523.7998046875 -506.500244140625 1586.39990234375 -506.500244140625Q1682.300048828125 -506.500244140625 1737.0252075195312 -457.8502197265625Q1791.7503662109375 -409.2001953125 1791.7503662109375 -318.6500244140625V-115.80126953125Q1791.7503662109375 -85.80126953125 1819.7503662109375 -85.80126953125H1862.2001953125V0.0H1785.19970703125Q1750.299560546875 0.0 1728.3994140625 -18.17498779296875Q1706.499267578125 -36.3499755859375 1706.499267578125 -67.0499267578125V-70.1497802734375H1690.6490478515625Q1683.499267578125 -54.6500244140625 1667.2244262695312 -34.62506103515625Q1650.9495849609375 -14.60009765625 1619.899658203125 -0.300048828125Q1588.8497314453125 14.0 1537.5496826171875 14.0ZM1553.2501220703125 -71.201171875Q1614.6495361328125 -71.201171875 1653.0491943359375 -106.6507568359375Q1691.4488525390625 -142.100341796875 1691.4488525390625 -203.699462890625V-214.3994140625H1546.9500732421875Q1506.00048828125 -214.3994140625 1480.9258422851562 -196.77459716796875Q1455.8511962890625 -179.1497802734375 1455.8511962890625 -145.1502685546875Q1455.8511962890625 -111.1507568359375 1481.9258422851562 -91.17596435546875Q1508.00048828125 -71.201171875 1553.2501220703125 -71.201171875Z M2002.299560546875 200.0V-492.500244140625H2103.201171875V-422.3509521484375H2119.101318359375Q2137.501220703125 -455.20068359375 2176.4760131835938 -480.8504638671875Q2215.4508056640625 -506.500244140625 2287.00048828125 -506.500244140625Q2348.7503662109375 -506.500244140625 2400.4503173828125 -476.6502685546875Q2452.1502685546875 -446.80029296875 2483.3252563476562 -390.1502685546875Q2514.500244140625 -333.500244140625 2514.500244140625 -253.5501708984375V-238.9500732421875Q2514.500244140625 -159.3499755859375 2483.500244140625 -102.52496337890625Q2452.500244140625 -45.699951171875 2400.80029296875 -15.8499755859375Q2349.100341796875 14.0 2287.00048828125 14.0Q2239.20068359375 14.0 2206.2508544921875 2.10009765625Q2173.301025390625 -9.7998046875 2153.0511474609375 -28.57464599609375Q2132.80126953125 -47.3494873046875 2121.101318359375 -66.79931640625H2105.201171875V200.0ZM2257.39990234375 -76.4013671875Q2324.79931640625 -76.4013671875 2367.8489990234375 -119.32598876953125Q2410.898681640625 -162.2506103515625 2410.898681640625 -241.60009765625V-250.900146484375Q2410.898681640625 -330.2496337890625 2367.5239868164062 -373.17425537109375Q2324.1492919921875 -416.098876953125 2257.39990234375 -416.098876953125Q2191.00048828125 -416.098876953125 2147.4508056640625 -373.17425537109375Q2103.901123046875 -330.2496337890625 2103.901123046875 -250.900146484375V-241.60009765625Q2103.901123046875 -162.2506103515625 2147.4508056640625 -119.32598876953125Q2191.00048828125 -76.4013671875 2257.39990234375 -76.4013671875Z M2683.299560546875 0.0V-492.500244140625H2784.201171875V-434.7503662109375H2800.101318359375Q2812.1512451171875 -465.80029296875 2838.3511962890625 -480.1502685546875Q2864.5511474609375 -494.500244140625 2903.80078125 -494.500244140625H2962.7508544921875V-402.098876953125H2900.0509033203125Q2849.60107421875 -402.098876953125 2817.901123046875 -374.67401123046875Q2786.201171875 -347.2491455078125 2786.201171875 -289.699462890625V0.0Z M3341.39990234375 14.0Q3267.39990234375 14.0 3209.6248168945312 -16.52496337890625Q3151.8497314453125 -47.0499267578125 3119.0746459960938 -103.87493896484375Q3086.299560546875 -160.699951171875 3086.299560546875 -238.9500732421875V-253.5501708984375Q3086.299560546875 -331.80029296875 3119.0746459960938 -388.62530517578125Q3151.8497314453125 -445.4503173828125 3209.6248168945312 -475.97528076171875Q3267.39990234375 -506.500244140625 3341.39990234375 -506.500244140625Q3415.39990234375 -506.500244140625 3473.1749877929688 -475.97528076171875Q3530.9500732421875 -445.4503173828125 3563.7251586914062 -388.62530517578125Q3596.500244140625 -331.80029296875 3596.500244140625 -253.5501708984375V-238.9500732421875Q3596.500244140625 -160.699951171875 3563.7251586914062 -103.87493896484375Q3530.9500732421875 -47.0499267578125 3473.1749877929688 -16.52496337890625Q3415.39990234375 14.0 3341.39990234375 14.0ZM3341.39990234375 -77.701416015625Q3409.19921875 -77.701416015625 3451.39892578125 -121.1510009765625Q3493.5986328125 -164.6005859375 3493.5986328125 -241.60009765625V-250.900146484375Q3493.5986328125 -327.899658203125 3451.7239379882812 -371.3492431640625Q3409.8492431640625 -414.798828125 3341.39990234375 -414.798828125Q3273.9505615234375 -414.798828125 3231.5758666992188 -371.3492431640625Q3189.201171875 -327.899658203125 3189.201171875 -250.900146484375V-241.60009765625Q3189.201171875 -164.6005859375 3231.5758666992188 -121.1510009765625Q3273.9505615234375 -77.701416015625 3341.39990234375 -77.701416015625Z M3723.3994140625 0.0 3911.4488525390625 -248.9500732421875 3727.1492919921875 -492.500244140625H3848.301025390625L3977.39990234375 -315.60107421875H3993.300048828125L4122.39892578125 -492.500244140625H4243.5506591796875L4059.2510986328125 -248.9500732421875L4247.300537109375 0.0H4124.498779296875L3993.300048828125 -180.9990234375H3977.39990234375L3846.201171875 0.0Z M4454.7493896484375 200.0V109.5986328125H4729.6490478515625Q4758.3489990234375 109.5986328125 4758.3489990234375 79.5986328125V-71.6495361328125H4742.4488525390625Q4733.0489501953125 -52.19970703125 4714.474060058594 -33.62481689453125Q4695.899169921875 -15.0499267578125 4664.974304199219 -3.17498779296875Q4634.0494384765625 8.699951171875 4586.599609375 8.699951171875Q4530.699462890625 8.699951171875 4486.8494873046875 -16.22515869140625Q4442.99951171875 -41.1502685546875 4418.124572753906 -87.100341796875Q4393.2496337890625 -133.0504150390625 4393.2496337890625 -196.1502685546875V-492.500244140625H4496.1512451171875V-204.0504150390625Q4496.1512451171875 -140.0009765625 4528.025939941406 -109.5511474609375Q4559.900634765625 -79.101318359375 4616.500244140625 -79.101318359375Q4680.4498291015625 -79.101318359375 4718.7493896484375 -121.27606201171875Q4757.0489501953125 -163.4508056640625 4757.0489501953125 -243.300048828125V-492.500244140625H4859.9505615234375V100.59912109375Q4859.9505615234375 146.3494873046875 4833.625305175781 173.17474365234375Q4807.300048828125 200.0 4761.1497802734375 200.0Z"/>
  </g>
  <g transform="translate(221.3 436.0) scale(0.02984)">
    <path fill="#8A8DEB" d="M262.552001953125 0.0Q219.9320068359375 0.0 196.45001220703125 -23.800994873046875Q172.968017578125 -47.60198974609375 172.968017578125 -89.031982421875V-417.52001953125H28.552001953125V-489.6199951171875H172.968017578125V-661.4840087890625H256.8599853515625V-489.6199951171875H414.552001953125V-417.52001953125H256.8599853515625V-102.0999755859375Q256.8599853515625 -72.0999755859375 286.135986328125 -72.0999755859375H393.6199951171875V0.0Z M567.4840087890625 0.0V-700.0H651.3759765625V-413.3079833984375H665.5479736328125Q676.0999755859375 -434.4119873046875 695.9709777832031 -453.9209899902344Q715.8419799804688 -473.42999267578125 748.1699829101562 -485.843994140625Q780.4979858398438 -498.25799560546875 829.6019897460938 -498.25799560546875Q884.4119873046875 -498.25799560546875 928.2309875488281 -474.6289978027344Q972.0499877929688 -451.0 997.6449890136719 -406.0950012207031Q1023.239990234375 -361.19000244140625 1023.239990234375 -296.0V0.0H939.3480224609375V-289.8280029296875Q939.3480224609375 -361.1400146484375 903.8730163574219 -393.2870178222656Q868.3980102539062 -425.43402099609375 807.1900024414062 -425.43402099609375Q738.343994140625 -425.43402099609375 694.8599853515625 -380.2350158691406Q651.3759765625 -335.0360107421875 651.3759765625 -246.25799560546875V0.0Z M1431.2080078125 14.0Q1356.5700073242188 14.0 1300.7080078125 -17.5Q1244.8460083007812 -49.0 1213.6650085449219 -106.18099975585938Q1182.4840087890625 -163.36199951171875 1182.4840087890625 -238.80999755859375V-250.80999755859375Q1182.4840087890625 -326.89599609375 1213.4840087890625 -383.75799560546875Q1244.4840087890625 -440.6199951171875 1299.5270080566406 -472.1199951171875Q1354.5700073242188 -503.6199951171875 1426.0180053710938 -503.6199951171875Q1495.8280029296875 -503.6199951171875 1548.8710021972656 -473.6719970703125Q1601.9140014648438 -443.7239990234375 1631.9140014648438 -388.7760009765625Q1661.9140014648438 -333.8280029296875 1661.9140014648438 -259.10400390625V-223.12200927734375H1267.0999755859375Q1269.7379760742188 -146.60198974609375 1316.2649841308594 -103.43698120117188Q1362.7919921875 -60.27197265625 1432.656005859375 -60.27197265625Q1495.2260131835938 -60.27197265625 1528.2010192871094 -88.3759765625Q1561.176025390625 -116.47998046875 1578.6420288085938 -155.32598876953125L1650.3800048828125 -120.46600341796875Q1635.7420043945312 -90.0 1609.2420043945312 -58.86199951171875Q1582.7420043945312 -27.7239990234375 1540.0180053710938 -6.86199951171875Q1497.2940063476562 14.0 1431.2080078125 14.0ZM1268.0999755859375 -290.32598876953125H1576.6600341796875Q1572.6600341796875 -356.29400634765625 1531.6330261230469 -392.8210144042969Q1490.6060180664062 -429.3480224609375 1425.656005859375 -429.3480224609375Q1360.6199951171875 -429.3480224609375 1319.135986328125 -392.8210144042969Q1277.6519775390625 -356.29400634765625 1268.0999755859375 -290.32598876953125Z M2105.4840087890625 0.0V-700.0H2189.3759765625V0.0Z M2603.2080078125 14.0Q2528.5700073242188 14.0 2472.7080078125 -17.5Q2416.8460083007812 -49.0 2385.665008544922 -106.18099975585938Q2354.4840087890625 -163.36199951171875 2354.4840087890625 -238.80999755859375V-250.80999755859375Q2354.4840087890625 -326.89599609375 2385.4840087890625 -383.75799560546875Q2416.4840087890625 -440.6199951171875 2471.5270080566406 -472.1199951171875Q2526.5700073242188 -503.6199951171875 2598.0180053710938 -503.6199951171875Q2667.8280029296875 -503.6199951171875 2720.8710021972656 -473.6719970703125Q2773.9140014648438 -443.7239990234375 2803.9140014648438 -388.7760009765625Q2833.9140014648438 -333.8280029296875 2833.9140014648438 -259.10400390625V-223.12200927734375H2439.0999755859375Q2441.7379760742188 -146.60198974609375 2488.2649841308594 -103.43698120117188Q2534.7919921875 -60.27197265625 2604.656005859375 -60.27197265625Q2667.2260131835938 -60.27197265625 2700.2010192871094 -88.3759765625Q2733.176025390625 -116.47998046875 2750.6420288085938 -155.32598876953125L2822.3800048828125 -120.46600341796875Q2807.7420043945312 -90.0 2781.2420043945312 -58.86199951171875Q2754.7420043945312 -27.7239990234375 2712.0180053710938 -6.86199951171875Q2669.2940063476562 14.0 2603.2080078125 14.0ZM2440.0999755859375 -290.32598876953125H2748.6600341796875Q2744.6600341796875 -356.29400634765625 2703.633026123047 -392.8210144042969Q2662.6060180664062 -429.3480224609375 2597.656005859375 -429.3480224609375Q2532.6199951171875 -429.3480224609375 2491.135986328125 -392.8210144042969Q2449.6519775390625 -356.29400634765625 2440.0999755859375 -290.32598876953125Z M3145.2940063476562 14.0Q3093.5700073242188 14.0 3051.8890075683594 -3.86199951171875Q3010.2080078125 -21.7239990234375 2986.0270080566406 -56.266998291015625Q2961.8460083007812 -90.80999755859375 2961.8460083007812 -139.89599609375Q2961.8460083007812 -189.6199951171875 2986.0270080566406 -222.52499389648438Q3010.2080078125 -255.42999267578125 3052.113006591797 -271.9729919433594Q3094.0180053710938 -288.5159912109375 3146.1900024414062 -288.5159912109375H3308.9860229492188V-323.53399658203125Q3308.9860229492188 -373.84600830078125 3279.3300170898438 -403.0450134277344Q3249.6740112304688 -432.2440185546875 3190.8280029296875 -432.2440185546875Q3132.9819946289062 -432.2440185546875 3100.730987548828 -404.364013671875Q3068.47998046875 -376.4840087890625 3057.6519775390625 -330.36199951171875L2978.656005859375 -355.32598876953125Q2990.656005859375 -396.5159912109375 3016.8370056152344 -429.92999267578125Q3043.0180053710938 -463.343994140625 3086.561004638672 -483.48199462890625Q3130.10400390625 -503.6199951171875 3191.552001953125 -503.6199951171875Q3285.7239990234375 -503.6199951171875 3338.5769958496094 -455.25799560546875Q3391.4299926757812 -406.89599609375 3391.4299926757812 -318.36199951171875V-100.823974609375Q3391.4299926757812 -70.823974609375 3419.4299926757812 -70.823974609375H3463.89599609375V0.0H3392.656005859375Q3359.4840087890625 0.0 3339.31201171875 -18.319000244140625Q3319.1400146484375 -36.63800048828125 3319.1400146484375 -67.91400146484375V-72.74200439453125H3305.8820190429688Q3296.1400146484375 -54.36199951171875 3277.9930114746094 -33.904998779296875Q3259.8460083007812 -13.447998046875 3227.9320068359375 0.2760009765625Q3196.0180053710938 14.0 3145.2940063476562 14.0ZM3155.8099975585938 -57.3759765625Q3224.1220092773438 -57.3759765625 3266.5540161132812 -97.72198486328125Q3308.9860229492188 -138.0679931640625 3308.9860229492188 -210.0360107421875V-221.31201171875H3150.0859985351562Q3104.239990234375 -221.31201171875 3074.988983154297 -201.52700805664062Q3045.7379760742188 -181.74200439453125 3045.7379760742188 -141.98199462890625Q3045.7379760742188 -102.22198486328125 3075.988983154297 -79.79898071289062Q3106.239990234375 -57.3759765625 3155.8099975585938 -57.3759765625Z M3595.4840087890625 0.0V-489.6199951171875H3677.3759765625V-408.66998291015625H3691.5479736328125Q3707.3759765625 -442.9639892578125 3745.47998046875 -470.92999267578125Q3783.583984375 -498.89599609375 3857.6019897460938 -498.89599609375Q3912.4119873046875 -498.89599609375 3956.230987548828 -475.2669982910156Q4000.0499877929688 -451.63800048828125 4025.644989013672 -406.41400146484375Q4051.239990234375 -361.19000244140625 4051.239990234375 -296.0V0.0H3967.3480224609375V-289.8280029296875Q3967.3480224609375 -361.1400146484375 3931.873016357422 -393.60601806640625Q3896.3980102539062 -426.072021484375 3835.1900024414062 -426.072021484375Q3766.343994140625 -426.072021484375 3722.8599853515625 -380.55401611328125Q3679.3759765625 -335.0360107421875 3679.3759765625 -246.25799560546875V0.0Z M4668.294006347656 14.0Q4616.570007324219 14.0 4574.889007568359 -3.86199951171875Q4533.2080078125 -21.7239990234375 4509.027008056641 -56.266998291015625Q4484.846008300781 -90.80999755859375 4484.846008300781 -139.89599609375Q4484.846008300781 -189.6199951171875 4509.027008056641 -222.52499389648438Q4533.2080078125 -255.42999267578125 4575.113006591797 -271.9729919433594Q4617.018005371094 -288.5159912109375 4669.190002441406 -288.5159912109375H4831.986022949219V-323.53399658203125Q4831.986022949219 -373.84600830078125 4802.330017089844 -403.0450134277344Q4772.674011230469 -432.2440185546875 4713.8280029296875 -432.2440185546875Q4655.981994628906 -432.2440185546875 4623.730987548828 -404.364013671875Q4591.47998046875 -376.4840087890625 4580.6519775390625 -330.36199951171875L4501.656005859375 -355.32598876953125Q4513.656005859375 -396.5159912109375 4539.837005615234 -429.92999267578125Q4566.018005371094 -463.343994140625 4609.561004638672 -483.48199462890625Q4653.10400390625 -503.6199951171875 4714.552001953125 -503.6199951171875Q4808.7239990234375 -503.6199951171875 4861.576995849609 -455.25799560546875Q4914.429992675781 -406.89599609375 4914.429992675781 -318.36199951171875V-100.823974609375Q4914.429992675781 -70.823974609375 4942.429992675781 -70.823974609375H4986.89599609375V0.0H4915.656005859375Q4882.4840087890625 0.0 4862.31201171875 -18.319000244140625Q4842.1400146484375 -36.63800048828125 4842.1400146484375 -67.91400146484375V-72.74200439453125H4828.882019042969Q4819.1400146484375 -54.36199951171875 4800.993011474609 -33.904998779296875Q4782.846008300781 -13.447998046875 4750.9320068359375 0.2760009765625Q4719.018005371094 14.0 4668.294006347656 14.0ZM4678.809997558594 -57.3759765625Q4747.122009277344 -57.3759765625 4789.554016113281 -97.72198486328125Q4831.986022949219 -138.0679931640625 4831.986022949219 -210.0360107421875V-221.31201171875H4673.085998535156Q4627.239990234375 -221.31201171875 4597.988983154297 -201.52700805664062Q4568.737976074219 -181.74200439453125 4568.737976074219 -141.98199462890625Q4568.737976074219 -102.22198486328125 4598.988983154297 -79.79898071289062Q4629.239990234375 -57.3759765625 4678.809997558594 -57.3759765625Z M5118.4840087890625 200.0V-489.6199951171875H5200.3759765625V-411.11798095703125H5214.5479736328125Q5234.0999755859375 -447.135986328125 5275.522979736328 -475.37799072265625Q5316.945983886719 -503.6199951171875 5392.239990234375 -503.6199951171875Q5455.429992675781 -503.6199951171875 5507.705993652344 -473.48199462890625Q5559.981994628906 -443.343994140625 5591.300994873047 -386.98199462890625Q5622.6199951171875 -330.6199951171875 5622.6199951171875 -251.53399658203125V-238.08599853515625Q5622.6199951171875 -159.63800048828125 5591.6199951171875 -102.95700073242188Q5560.6199951171875 -46.2760009765625 5508.343994140625 -16.13800048828125Q5456.0679931640625 14.0 5392.239990234375 14.0Q5342.135986328125 14.0 5307.169982910156 0.947998046875Q5272.2039794921875 -12.10400390625 5250.513977050781 -32.751007080078125Q5228.823974609375 -53.39801025390625 5216.5479736328125 -74.864013671875H5202.3759765625V200.0ZM5369.552001953125 -60.27197265625Q5443.864013671875 -60.27197265625 5490.658020019531 -107.66098022460938Q5537.4520263671875 -155.04998779296875 5537.4520263671875 -240.447998046875V-249.1719970703125Q5537.4520263671875 -334.57000732421875 5490.477020263672 -381.9590148925781Q5443.502014160156 -429.3480224609375 5369.552001953125 -429.3480224609375Q5296.239990234375 -429.3480224609375 5248.945983886719 -381.9590148925781Q5201.6519775390625 -334.57000732421875 5201.6519775390625 -249.1719970703125V-240.447998046875Q5201.6519775390625 -155.04998779296875 5248.945983886719 -107.66098022460938Q5296.239990234375 -60.27197265625 5369.552001953125 -60.27197265625Z M5787.4840087890625 0.0V-489.6199951171875H5871.3759765625V0.0ZM5829.429992675781 -564.2080078125Q5803.085998535156 -564.2080078125 5785.009002685547 -581.7420043945312Q5766.9320068359375 -599.2760009765625 5766.9320068359375 -626.343994140625Q5766.9320068359375 -654.0499877929688 5785.009002685547 -671.2649841308594Q5803.085998535156 -688.47998046875 5829.429992675781 -688.47998046875Q5856.773986816406 -688.47998046875 5874.350982666016 -671.2649841308594Q5891.927978515625 -654.0499877929688 5891.927978515625 -626.343994140625Q5891.927978515625 -599.2760009765625 5874.350982666016 -581.7420043945312Q5856.773986816406 -564.2080078125 5829.429992675781 -564.2080078125Z M6319.4840087890625 -242.80999755859375V-256.25799560546875Q6319.4840087890625 -333.6199951171875 6350.803009033203 -388.8009948730469Q6382.122009277344 -443.98199462890625 6434.579010009766 -473.8009948730469Q6487.0360107421875 -503.6199951171875 6550.5880126953125 -503.6199951171875Q6626.2440185546875 -503.6199951171875 6667.305023193359 -474.8349914550781Q6708.366027832031 -446.04998779296875 6727.5560302734375 -411.11798095703125H6741.72802734375V-489.6199951171875H6822.343994140625V110.968017578125Q6822.343994140625 152.39801025390625 6799.361999511719 176.19900512695312Q6776.3800048828125 200.0 6733.398010253906 200.0H6401.398010253906V125.72802734375H6709.814025878906Q6739.72802734375 125.72802734375 6739.72802734375 95.72802734375V-84.31201171875H6725.5560302734375Q6713.642028808594 -63.2080078125 6692.133026123047 -42.561004638671875Q6670.6240234375 -21.91400146484375 6636.158020019531 -8.680999755859375Q6601.6920166015625 4.552001953125 6550.5880126953125 4.552001953125Q6487.0360107421875 4.552001953125 6434.260009765625 -25.266998291015625Q6381.4840087890625 -55.08599853515625 6350.4840087890625 -110.58599853515625Q6319.4840087890625 -166.08599853515625 6319.4840087890625 -242.80999755859375ZM6572.552001953125 -69.719970703125Q6646.502014160156 -69.719970703125 6693.477020263672 -116.28997802734375Q6740.4520263671875 -162.8599853515625 6740.4520263671875 -245.1719970703125V-253.89599609375Q6740.4520263671875 -337.2080078125 6693.658020019531 -383.27801513671875Q6646.864013671875 -429.3480224609375 6572.552001953125 -429.3480224609375Q6499.239990234375 -429.3480224609375 6451.945983886719 -383.27801513671875Q6404.6519775390625 -337.2080078125 6404.6519775390625 -253.89599609375V-245.1719970703125Q6404.6519775390625 -162.8599853515625 6451.945983886719 -116.28997802734375Q6499.239990234375 -69.719970703125 6572.552001953125 -69.719970703125Z M7162.294006347656 14.0Q7110.570007324219 14.0 7068.889007568359 -3.86199951171875Q7027.2080078125 -21.7239990234375 7003.027008056641 -56.266998291015625Q6978.846008300781 -90.80999755859375 6978.846008300781 -139.89599609375Q6978.846008300781 -189.6199951171875 7003.027008056641 -222.52499389648438Q7027.2080078125 -255.42999267578125 7069.113006591797 -271.9729919433594Q7111.018005371094 -288.5159912109375 7163.190002441406 -288.5159912109375H7325.986022949219V-323.53399658203125Q7325.986022949219 -373.84600830078125 7296.330017089844 -403.0450134277344Q7266.674011230469 -432.2440185546875 7207.8280029296875 -432.2440185546875Q7149.981994628906 -432.2440185546875 7117.730987548828 -404.364013671875Q7085.47998046875 -376.4840087890625 7074.6519775390625 -330.36199951171875L6995.656005859375 -355.32598876953125Q7007.656005859375 -396.5159912109375 7033.837005615234 -429.92999267578125Q7060.018005371094 -463.343994140625 7103.561004638672 -483.48199462890625Q7147.10400390625 -503.6199951171875 7208.552001953125 -503.6199951171875Q7302.7239990234375 -503.6199951171875 7355.576995849609 -455.25799560546875Q7408.429992675781 -406.89599609375 7408.429992675781 -318.36199951171875V-100.823974609375Q7408.429992675781 -70.823974609375 7436.429992675781 -70.823974609375H7480.89599609375V0.0H7409.656005859375Q7376.4840087890625 0.0 7356.31201171875 -18.319000244140625Q7336.1400146484375 -36.63800048828125 7336.1400146484375 -67.91400146484375V-72.74200439453125H7322.882019042969Q7313.1400146484375 -54.36199951171875 7294.993011474609 -33.904998779296875Q7276.846008300781 -13.447998046875 7244.9320068359375 0.2760009765625Q7213.018005371094 14.0 7162.294006347656 14.0ZM7172.809997558594 -57.3759765625Q7241.122009277344 -57.3759765625 7283.554016113281 -97.72198486328125Q7325.986022949219 -138.0679931640625 7325.986022949219 -210.0360107421875V-221.31201171875H7167.085998535156Q7121.239990234375 -221.31201171875 7091.988983154297 -201.52700805664062Q7062.737976074219 -181.74200439453125 7062.737976074219 -141.98199462890625Q7062.737976074219 -102.22198486328125 7092.988983154297 -79.79898071289062Q7123.239990234375 -57.3759765625 7172.809997558594 -57.3759765625Z M7793.552001953125 0.0Q7750.9320068359375 0.0 7727.450012207031 -23.800994873046875Q7703.968017578125 -47.60198974609375 7703.968017578125 -89.031982421875V-417.52001953125H7559.552001953125V-489.6199951171875H7703.968017578125V-661.4840087890625H7787.8599853515625V-489.6199951171875H7945.552001953125V-417.52001953125H7787.8599853515625V-102.0999755859375Q7787.8599853515625 -72.0999755859375 7817.135986328125 -72.0999755859375H7924.6199951171875V0.0Z M8323.2080078125 14.0Q8248.570007324219 14.0 8192.7080078125 -17.5Q8136.846008300781 -49.0 8105.665008544922 -106.18099975585938Q8074.4840087890625 -163.36199951171875 8074.4840087890625 -238.80999755859375V-250.80999755859375Q8074.4840087890625 -326.89599609375 8105.4840087890625 -383.75799560546875Q8136.4840087890625 -440.6199951171875 8191.527008056641 -472.1199951171875Q8246.570007324219 -503.6199951171875 8318.018005371094 -503.6199951171875Q8387.828002929688 -503.6199951171875 8440.871002197266 -473.6719970703125Q8493.914001464844 -443.7239990234375 8523.914001464844 -388.7760009765625Q8553.914001464844 -333.8280029296875 8553.914001464844 -259.10400390625V-223.12200927734375H8159.0999755859375Q8161.737976074219 -146.60198974609375 8208.26498413086 -103.43698120117188Q8254.7919921875 -60.27197265625 8324.656005859375 -60.27197265625Q8387.226013183594 -60.27197265625 8420.20101928711 -88.3759765625Q8453.176025390625 -116.47998046875 8470.642028808594 -155.32598876953125L8542.380004882812 -120.46600341796875Q8527.742004394531 -90.0 8501.242004394531 -58.86199951171875Q8474.742004394531 -27.7239990234375 8432.018005371094 -6.86199951171875Q8389.294006347656 14.0 8323.2080078125 14.0ZM8160.0999755859375 -290.32598876953125H8468.660034179688Q8464.660034179688 -356.29400634765625 8423.633026123047 -392.8210144042969Q8382.606018066406 -429.3480224609375 8317.656005859375 -429.3480224609375Q8252.619995117188 -429.3480224609375 8211.135986328125 -392.8210144042969Q8169.6519775390625 -356.29400634765625 8160.0999755859375 -290.32598876953125Z M8780.004028320312 0.0 8684.484008789062 -489.6199951171875H8769.289978027344L8846.466003417969 -56.28997802734375H8860.638000488281L8963.556030273438 -489.6199951171875H9101.755981445312L9204.674011230469 -56.28997802734375H9218.846008300781L9296.022033691406 -489.6199951171875H9380.828002929688L9285.307983398438 0.0H9142.660034179688L9039.742004394531 -433.33001708984375H9025.570007324219L8922.651977539062 0.0Z M9690.294006347656 14.0Q9638.570007324219 14.0 9596.88900756836 -3.86199951171875Q9555.2080078125 -21.7239990234375 9531.02700805664 -56.266998291015625Q9506.846008300781 -90.80999755859375 9506.846008300781 -139.89599609375Q9506.846008300781 -189.6199951171875 9531.02700805664 -222.52499389648438Q9555.2080078125 -255.42999267578125 9597.113006591797 -271.9729919433594Q9639.018005371094 -288.5159912109375 9691.190002441406 -288.5159912109375H9853.986022949219V-323.53399658203125Q9853.986022949219 -373.84600830078125 9824.330017089844 -403.0450134277344Q9794.674011230469 -432.2440185546875 9735.828002929688 -432.2440185546875Q9677.981994628906 -432.2440185546875 9645.730987548828 -404.364013671875Q9613.47998046875 -376.4840087890625 9602.651977539062 -330.36199951171875L9523.656005859375 -355.32598876953125Q9535.656005859375 -396.5159912109375 9561.837005615234 -429.92999267578125Q9588.018005371094 -463.343994140625 9631.561004638672 -483.48199462890625Q9675.10400390625 -503.6199951171875 9736.552001953125 -503.6199951171875Q9830.723999023438 -503.6199951171875 9883.57699584961 -455.25799560546875Q9936.429992675781 -406.89599609375 9936.429992675781 -318.36199951171875V-100.823974609375Q9936.429992675781 -70.823974609375 9964.429992675781 -70.823974609375H10008.89599609375V0.0H9937.656005859375Q9904.484008789062 0.0 9884.31201171875 -18.319000244140625Q9864.140014648438 -36.63800048828125 9864.140014648438 -67.91400146484375V-72.74200439453125H9850.882019042969Q9841.140014648438 -54.36199951171875 9822.99301147461 -33.904998779296875Q9804.846008300781 -13.447998046875 9772.932006835938 0.2760009765625Q9741.018005371094 14.0 9690.294006347656 14.0ZM9700.809997558594 -57.3759765625Q9769.122009277344 -57.3759765625 9811.554016113281 -97.72198486328125Q9853.986022949219 -138.0679931640625 9853.986022949219 -210.0360107421875V-221.31201171875H9695.085998535156Q9649.239990234375 -221.31201171875 9619.988983154297 -201.52700805664062Q9590.737976074219 -181.74200439453125 9590.737976074219 -141.98199462890625Q9590.737976074219 -102.22198486328125 9620.988983154297 -79.79898071289062Q9651.239990234375 -57.3759765625 9700.809997558594 -57.3759765625Z M10198.950012207031 200.0V125.72802734375H10477.882019042969Q10507.158020019531 125.72802734375 10507.158020019531 95.72802734375V-77.12200927734375H10492.986022949219Q10482.434020996094 -55.656005859375 10462.563018798828 -35.785003662109375Q10442.692016601562 -15.91400146484375 10410.183013916016 -3.319000244140625Q10377.674011230469 9.2760009765625 10328.2080078125 9.2760009765625Q10274.036010742188 9.2760009765625 10229.898010253906 -14.352996826171875Q10185.760009765625 -37.98199462890625 10160.165008544922 -83.0679931640625Q10134.570007324219 -128.15399169921875 10134.570007324219 -192.98199462890625V-489.6199951171875H10218.461975097656V-199.15399169921875Q10218.461975097656 -128.47998046875 10253.936981201172 -96.01397705078125Q10289.411987304688 -63.5479736328125 10350.619995117188 -63.5479736328125Q10419.466003417969 -63.5479736328125 10462.950012207031 -108.74697875976562Q10506.434020996094 -153.94598388671875 10506.434020996094 -242.7239990234375V-489.6199951171875H10590.325988769531V110.968017578125Q10590.325988769531 152.39801025390625 10567.024993896484 176.19900512695312Q10543.723999023438 200.0 10500.742004394531 200.0Z M11059.2080078125 -218.416015625V-295.4119873046875H11811.2080078125V-218.416015625Z M12279.484008789062 0.0V-700.0H12363.3759765625V-290.66998291015625H12377.547973632812L12595.778015136719 -489.6199951171875H12711.289978027344L12444.64794921875 -251.53399658203125L12719.289978027344 0.0H12605.140014648438L12377.547973632812 -211.0360107421875H12363.3759765625V0.0Z M13070.2080078125 14.0Q12995.570007324219 14.0 12939.7080078125 -17.5Q12883.846008300781 -49.0 12852.665008544922 -106.18099975585938Q12821.484008789062 -163.36199951171875 12821.484008789062 -238.80999755859375V-250.80999755859375Q12821.484008789062 -326.89599609375 12852.484008789062 -383.75799560546875Q12883.484008789062 -440.6199951171875 12938.52700805664 -472.1199951171875Q12993.570007324219 -503.6199951171875 13065.018005371094 -503.6199951171875Q13134.828002929688 -503.6199951171875 13187.871002197266 -473.6719970703125Q13240.914001464844 -443.7239990234375 13270.914001464844 -388.7760009765625Q13300.914001464844 -333.8280029296875 13300.914001464844 -259.10400390625V-223.12200927734375H12906.099975585938Q12908.737976074219 -146.60198974609375 12955.26498413086 -103.43698120117188Q13001.7919921875 -60.27197265625 13071.656005859375 -60.27197265625Q13134.226013183594 -60.27197265625 13167.20101928711 -88.3759765625Q13200.176025390625 -116.47998046875 13217.642028808594 -155.32598876953125L13289.380004882812 -120.46600341796875Q13274.742004394531 -90.0 13248.242004394531 -58.86199951171875Q13221.742004394531 -27.7239990234375 13179.018005371094 -6.86199951171875Q13136.294006347656 14.0 13070.2080078125 14.0ZM12907.099975585938 -290.32598876953125H13215.660034179688Q13211.660034179688 -356.29400634765625 13170.633026123047 -392.8210144042969Q13129.606018066406 -429.3480224609375 13064.656005859375 -429.3480224609375Q12999.619995117188 -429.3480224609375 12958.135986328125 -392.8210144042969Q12916.651977539062 -356.29400634765625 12907.099975585938 -290.32598876953125Z M13519.950012207031 200.0V125.72802734375H13798.882019042969Q13828.158020019531 125.72802734375 13828.158020019531 95.72802734375V-77.12200927734375H13813.986022949219Q13803.434020996094 -55.656005859375 13783.563018798828 -35.785003662109375Q13763.692016601562 -15.91400146484375 13731.183013916016 -3.319000244140625Q13698.674011230469 9.2760009765625 13649.2080078125 9.2760009765625Q13595.036010742188 9.2760009765625 13550.898010253906 -14.352996826171875Q13506.760009765625 -37.98199462890625 13481.165008544922 -83.0679931640625Q13455.570007324219 -128.15399169921875 13455.570007324219 -192.98199462890625V-489.6199951171875H13539.461975097656V-199.15399169921875Q13539.461975097656 -128.47998046875 13574.936981201172 -96.01397705078125Q13610.411987304688 -63.5479736328125 13671.619995117188 -63.5479736328125Q13740.466003417969 -63.5479736328125 13783.950012207031 -108.74697875976562Q13827.434020996094 -153.94598388671875 13827.434020996094 -242.7239990234375V-489.6199951171875H13911.325988769531V110.968017578125Q13911.325988769531 152.39801025390625 13888.024993896484 176.19900512695312Q13864.723999023438 200.0 13821.742004394531 200.0Z M14383.484008789062 0.0V-489.6199951171875H14465.3759765625V-430.42999267578125H14479.547973632812Q14492.461975097656 -462.343994140625 14519.237976074219 -476.98199462890625Q14546.013977050781 -491.6199951171875 14589.583984375 -491.6199951171875H14647.669982910156V-415.3480224609375H14584.393981933594Q14531.927978515625 -415.3480224609375 14499.651977539062 -386.3390197753906Q14467.3759765625 -357.33001708984375 14467.3759765625 -296.0360107421875V0.0Z M15015.552001953125 14.0Q14941.552001953125 14.0 14884.78500366211 -16.957000732421875Q14828.018005371094 -47.91400146484375 14796.251007080078 -104.59500122070312Q14764.484008789062 -161.2760009765625 14764.484008789062 -238.08599853515625V-251.53399658203125Q14764.484008789062 -328.343994140625 14796.251007080078 -385.0249938964844Q14828.018005371094 -441.70599365234375 14884.78500366211 -472.6629943847656Q14941.552001953125 -503.6199951171875 15015.552001953125 -503.6199951171875Q15089.552001953125 -503.6199951171875 15146.31900024414 -472.6629943847656Q15203.085998535156 -441.70599365234375 15234.852996826172 -385.0249938964844Q15266.619995117188 -328.343994140625 15266.619995117188 -251.53399658203125V-238.08599853515625Q15266.619995117188 -161.2760009765625 15234.852996826172 -104.59500122070312Q15203.085998535156 -47.91400146484375 15146.31900024414 -16.957000732421875Q15089.552001953125 14.0 15015.552001953125 14.0ZM15015.552001953125 -60.9959716796875Q15091.416015625 -60.9959716796875 15137.072021484375 -109.34197998046875Q15182.72802734375 -157.68798828125 15182.72802734375 -240.447998046875V-249.1719970703125Q15182.72802734375 -331.9320068359375 15137.253021240234 -380.27801513671875Q15091.778015136719 -428.6240234375 15015.552001953125 -428.6240234375Q14940.325988769531 -428.6240234375 14894.350982666016 -380.27801513671875Q14848.3759765625 -331.9320068359375 14848.3759765625 -249.1719970703125V-240.447998046875Q14848.3759765625 -157.68798828125 14894.350982666016 -109.34197998046875Q14940.325988769531 -60.9959716796875 15015.552001953125 -60.9959716796875Z M15612.552001953125 0.0Q15569.932006835938 0.0 15546.450012207031 -23.800994873046875Q15522.968017578125 -47.60198974609375 15522.968017578125 -89.031982421875V-417.52001953125H15378.552001953125V-489.6199951171875H15522.968017578125V-661.4840087890625H15606.859985351562V-489.6199951171875H15764.552001953125V-417.52001953125H15606.859985351562V-102.0999755859375Q15606.859985351562 -72.0999755859375 15636.135986328125 -72.0999755859375H15743.619995117188V0.0Z M16068.294006347656 14.0Q16016.570007324219 14.0 15974.88900756836 -3.86199951171875Q15933.2080078125 -21.7239990234375 15909.02700805664 -56.266998291015625Q15884.846008300781 -90.80999755859375 15884.846008300781 -139.89599609375Q15884.846008300781 -189.6199951171875 15909.02700805664 -222.52499389648438Q15933.2080078125 -255.42999267578125 15975.113006591797 -271.9729919433594Q16017.018005371094 -288.5159912109375 16069.190002441406 -288.5159912109375H16231.986022949219V-323.53399658203125Q16231.986022949219 -373.84600830078125 16202.330017089844 -403.0450134277344Q16172.674011230469 -432.2440185546875 16113.828002929688 -432.2440185546875Q16055.981994628906 -432.2440185546875 16023.730987548828 -404.364013671875Q15991.47998046875 -376.4840087890625 15980.651977539062 -330.36199951171875L15901.656005859375 -355.32598876953125Q15913.656005859375 -396.5159912109375 15939.837005615234 -429.92999267578125Q15966.018005371094 -463.343994140625 16009.561004638672 -483.48199462890625Q16053.10400390625 -503.6199951171875 16114.552001953125 -503.6199951171875Q16208.723999023438 -503.6199951171875 16261.57699584961 -455.25799560546875Q16314.429992675781 -406.89599609375 16314.429992675781 -318.36199951171875V-100.823974609375Q16314.429992675781 -70.823974609375 16342.429992675781 -70.823974609375H16386.89599609375V0.0H16315.656005859375Q16282.484008789062 0.0 16262.31201171875 -18.319000244140625Q16242.140014648438 -36.63800048828125 16242.140014648438 -67.91400146484375V-72.74200439453125H16228.882019042969Q16219.140014648438 -54.36199951171875 16200.99301147461 -33.904998779296875Q16182.846008300781 -13.447998046875 16150.932006835938 0.2760009765625Q16119.018005371094 14.0 16068.294006347656 14.0ZM16078.809997558594 -57.3759765625Q16147.122009277344 -57.3759765625 16189.554016113281 -97.72198486328125Q16231.986022949219 -138.0679931640625 16231.986022949219 -210.0360107421875V-221.31201171875H16073.085998535156Q16027.239990234375 -221.31201171875 15997.988983154297 -201.52700805664062Q15968.737976074219 -181.74200439453125 15968.737976074219 -141.98199462890625Q15968.737976074219 -102.22198486328125 15998.988983154297 -79.79898071289062Q16029.239990234375 -57.3759765625 16078.809997558594 -57.3759765625Z M16699.552001953125 0.0Q16656.932006835938 0.0 16633.45001220703 -23.800994873046875Q16609.968017578125 -47.60198974609375 16609.968017578125 -89.031982421875V-417.52001953125H16465.552001953125V-489.6199951171875H16609.968017578125V-661.4840087890625H16693.859985351562V-489.6199951171875H16851.552001953125V-417.52001953125H16693.859985351562V-102.0999755859375Q16693.859985351562 -72.0999755859375 16723.135986328125 -72.0999755859375H16830.619995117188V0.0Z M17004.484008789062 0.0V-489.6199951171875H17088.3759765625V0.0ZM17046.42999267578 -564.2080078125Q17020.085998535156 -564.2080078125 17002.009002685547 -581.7420043945312Q16983.932006835938 -599.2760009765625 16983.932006835938 -626.343994140625Q16983.932006835938 -654.0499877929688 17002.009002685547 -671.2649841308594Q17020.085998535156 -688.47998046875 17046.42999267578 -688.47998046875Q17073.773986816406 -688.47998046875 17091.350982666016 -671.2649841308594Q17108.927978515625 -654.0499877929688 17108.927978515625 -626.343994140625Q17108.927978515625 -599.2760009765625 17091.350982666016 -581.7420043945312Q17073.773986816406 -564.2080078125 17046.42999267578 -564.2080078125Z M17504.552001953125 14.0Q17430.552001953125 14.0 17373.78500366211 -16.957000732421875Q17317.018005371094 -47.91400146484375 17285.251007080078 -104.59500122070312Q17253.484008789062 -161.2760009765625 17253.484008789062 -238.08599853515625V-251.53399658203125Q17253.484008789062 -328.343994140625 17285.251007080078 -385.0249938964844Q17317.018005371094 -441.70599365234375 17373.78500366211 -472.6629943847656Q17430.552001953125 -503.6199951171875 17504.552001953125 -503.6199951171875Q17578.552001953125 -503.6199951171875 17635.31900024414 -472.6629943847656Q17692.085998535156 -441.70599365234375 17723.852996826172 -385.0249938964844Q17755.619995117188 -328.343994140625 17755.619995117188 -251.53399658203125V-238.08599853515625Q17755.619995117188 -161.2760009765625 17723.852996826172 -104.59500122070312Q17692.085998535156 -47.91400146484375 17635.31900024414 -16.957000732421875Q17578.552001953125 14.0 17504.552001953125 14.0ZM17504.552001953125 -60.9959716796875Q17580.416015625 -60.9959716796875 17626.072021484375 -109.34197998046875Q17671.72802734375 -157.68798828125 17671.72802734375 -240.447998046875V-249.1719970703125Q17671.72802734375 -331.9320068359375 17626.253021240234 -380.27801513671875Q17580.77801513672 -428.6240234375 17504.552001953125 -428.6240234375Q17429.32598876953 -428.6240234375 17383.350982666016 -380.27801513671875Q17337.3759765625 -331.9320068359375 17337.3759765625 -249.1719970703125V-240.447998046875Q17337.3759765625 -157.68798828125 17383.350982666016 -109.34197998046875Q17429.32598876953 -60.9959716796875 17504.552001953125 -60.9959716796875Z M17920.484008789062 0.0V-489.6199951171875H18002.3759765625V-408.66998291015625H18016.547973632812Q18032.3759765625 -442.9639892578125 18070.47998046875 -470.92999267578125Q18108.583984375 -498.89599609375 18182.601989746094 -498.89599609375Q18237.411987304688 -498.89599609375 18281.230987548828 -475.2669982910156Q18325.04998779297 -451.63800048828125 18350.644989013672 -406.41400146484375Q18376.239990234375 -361.19000244140625 18376.239990234375 -296.0V0.0H18292.348022460938V-289.8280029296875Q18292.348022460938 -361.1400146484375 18256.873016357422 -393.60601806640625Q18221.398010253906 -426.072021484375 18160.190002441406 -426.072021484375Q18091.343994140625 -426.072021484375 18047.859985351562 -380.55401611328125Q18004.3759765625 -335.0360107421875 18004.3759765625 -246.25799560546875V0.0Z M18553.809997558594 127.22198486328125V75.80999755859375H18583.239990234375Q18620.307983398438 75.80999755859375 18620.307983398438 38.74200439453125V6.74200439453125H18605.859985351562Q18576.067993164062 6.74200439453125 18555.947998046875 -11.834991455078125Q18535.828002929688 -30.4119873046875 18535.828002929688 -59.11798095703125Q18535.828002929688 -88.90997314453125 18555.947998046875 -107.84896850585938Q18576.067993164062 -126.7879638671875 18605.859985351562 -126.7879638671875Q18636.01397705078 -126.7879638671875 18655.95297241211 -107.02996826171875Q18675.891967773438 -87.27197265625 18675.891967773438 -56.39398193359375V38.19000244140625Q18675.891967773438 127.22198486328125 18587.497985839844 127.22198486328125Z M19124.484008789062 0.0V-489.6199951171875H19206.3759765625V-430.42999267578125H19220.547973632812Q19233.461975097656 -462.343994140625 19260.23797607422 -476.98199462890625Q19287.01397705078 -491.6199951171875 19330.583984375 -491.6199951171875H19388.669982910156V-415.3480224609375H19325.393981933594Q19272.927978515625 -415.3480224609375 19240.651977539062 -386.3390197753906Q19208.3759765625 -357.33001708984375 19208.3759765625 -296.0360107421875V0.0Z M19680.294006347656 14.0Q19628.57000732422 14.0 19586.88900756836 -3.86199951171875Q19545.2080078125 -21.7239990234375 19521.02700805664 -56.266998291015625Q19496.84600830078 -90.80999755859375 19496.84600830078 -139.89599609375Q19496.84600830078 -189.6199951171875 19521.02700805664 -222.52499389648438Q19545.2080078125 -255.42999267578125 19587.113006591797 -271.9729919433594Q19629.018005371094 -288.5159912109375 19681.190002441406 -288.5159912109375H19843.98602294922V-323.53399658203125Q19843.98602294922 -373.84600830078125 19814.330017089844 -403.0450134277344Q19784.67401123047 -432.2440185546875 19725.828002929688 -432.2440185546875Q19667.981994628906 -432.2440185546875 19635.730987548828 -404.364013671875Q19603.47998046875 -376.4840087890625 19592.651977539062 -330.36199951171875L19513.656005859375 -355.32598876953125Q19525.656005859375 -396.5159912109375 19551.837005615234 -429.92999267578125Q19578.018005371094 -463.343994140625 19621.561004638672 -483.48199462890625Q19665.10400390625 -503.6199951171875 19726.552001953125 -503.6199951171875Q19820.723999023438 -503.6199951171875 19873.57699584961 -455.25799560546875Q19926.42999267578 -406.89599609375 19926.42999267578 -318.36199951171875V-100.823974609375Q19926.42999267578 -70.823974609375 19954.42999267578 -70.823974609375H19998.89599609375V0.0H19927.656005859375Q19894.484008789062 0.0 19874.31201171875 -18.319000244140625Q19854.140014648438 -36.63800048828125 19854.140014648438 -67.91400146484375V-72.74200439453125H19840.88201904297Q19831.140014648438 -54.36199951171875 19812.99301147461 -33.904998779296875Q19794.84600830078 -13.447998046875 19762.932006835938 0.2760009765625Q19731.018005371094 14.0 19680.294006347656 14.0ZM19690.809997558594 -57.3759765625Q19759.122009277344 -57.3759765625 19801.55401611328 -97.72198486328125Q19843.98602294922 -138.0679931640625 19843.98602294922 -210.0360107421875V-221.31201171875H19685.085998535156Q19639.239990234375 -221.31201171875 19609.988983154297 -201.52700805664062Q19580.73797607422 -181.74200439453125 19580.73797607422 -141.98199462890625Q19580.73797607422 -102.22198486328125 19610.988983154297 -79.79898071289062Q19641.239990234375 -57.3759765625 19690.809997558594 -57.3759765625Z M20311.552001953125 0.0Q20268.932006835938 0.0 20245.45001220703 -23.800994873046875Q20221.968017578125 -47.60198974609375 20221.968017578125 -89.031982421875V-417.52001953125H20077.552001953125V-489.6199951171875H20221.968017578125V-661.4840087890625H20305.859985351562V-489.6199951171875H20463.552001953125V-417.52001953125H20305.859985351562V-102.0999755859375Q20305.859985351562 -72.0999755859375 20335.135986328125 -72.0999755859375H20442.619995117188V0.0Z M20841.2080078125 14.0Q20766.57000732422 14.0 20710.7080078125 -17.5Q20654.84600830078 -49.0 20623.665008544922 -106.18099975585938Q20592.484008789062 -163.36199951171875 20592.484008789062 -238.80999755859375V-250.80999755859375Q20592.484008789062 -326.89599609375 20623.484008789062 -383.75799560546875Q20654.484008789062 -440.6199951171875 20709.52700805664 -472.1199951171875Q20764.57000732422 -503.6199951171875 20836.018005371094 -503.6199951171875Q20905.828002929688 -503.6199951171875 20958.871002197266 -473.6719970703125Q21011.914001464844 -443.7239990234375 21041.914001464844 -388.7760009765625Q21071.914001464844 -333.8280029296875 21071.914001464844 -259.10400390625V-223.12200927734375H20677.099975585938Q20679.73797607422 -146.60198974609375 20726.26498413086 -103.43698120117188Q20772.7919921875 -60.27197265625 20842.656005859375 -60.27197265625Q20905.226013183594 -60.27197265625 20938.20101928711 -88.3759765625Q20971.176025390625 -116.47998046875 20988.642028808594 -155.32598876953125L21060.380004882812 -120.46600341796875Q21045.74200439453 -90.0 21019.24200439453 -58.86199951171875Q20992.74200439453 -27.7239990234375 20950.018005371094 -6.86199951171875Q20907.294006347656 14.0 20841.2080078125 14.0ZM20678.099975585938 -290.32598876953125H20986.660034179688Q20982.660034179688 -356.29400634765625 20941.633026123047 -392.8210144042969Q20900.606018066406 -429.3480224609375 20835.656005859375 -429.3480224609375Q20770.619995117188 -429.3480224609375 20729.135986328125 -392.8210144042969Q20687.651977539062 -356.29400634765625 20678.099975585938 -290.32598876953125Z M21515.484008789062 0.0V-700.0H21599.3759765625V0.0Z M21788.484008789062 0.0V-489.6199951171875H21872.3759765625V0.0ZM21830.42999267578 -564.2080078125Q21804.085998535156 -564.2080078125 21786.009002685547 -581.7420043945312Q21767.932006835938 -599.2760009765625 21767.932006835938 -626.343994140625Q21767.932006835938 -654.0499877929688 21786.009002685547 -671.2649841308594Q21804.085998535156 -688.47998046875 21830.42999267578 -688.47998046875Q21857.773986816406 -688.47998046875 21875.350982666016 -671.2649841308594Q21892.927978515625 -654.0499877929688 21892.927978515625 -626.343994140625Q21892.927978515625 -599.2760009765625 21875.350982666016 -581.7420043945312Q21857.773986816406 -564.2080078125 21830.42999267578 -564.2080078125Z M22061.484008789062 0.0V-489.6199951171875H22143.3759765625V-429.239990234375H22157.547973632812Q22171.823974609375 -455.5159912109375 22203.73797607422 -477.20599365234375Q22235.651977539062 -498.89599609375 22292.307983398438 -498.89599609375Q22349.135986328125 -498.89599609375 22384.00698852539 -474.2489929199219Q22418.877990722656 -449.60198974609375 22435.239990234375 -413.4119873046875H22449.411987304688Q22466.411987304688 -449.239990234375 22500.601989746094 -474.0679931640625Q22534.7919921875 -498.89599609375 22596.89599609375 -498.89599609375Q22645.447998046875 -498.89599609375 22682.628997802734 -478.75799560546875Q22719.809997558594 -458.6199951171875 22741.352996826172 -421.03399658203125Q22762.89599609375 -383.447998046875 22762.89599609375 -330.46600341796875V0.0H22679.004028320312V-323.3800048828125Q22679.004028320312 -371.39801025390625 22651.30502319336 -398.916015625Q22623.606018066406 -426.43402099609375 22573.484008789062 -426.43402099609375Q22520.914001464844 -426.43402099609375 22487.524993896484 -392.55401611328125Q22454.135986328125 -358.67401123046875 22454.135986328125 -294.2760009765625V0.0H22370.244018554688V-323.3800048828125Q22370.244018554688 -371.39801025390625 22342.545013427734 -398.916015625Q22314.84600830078 -426.43402099609375 22264.723999023438 -426.43402099609375Q22212.15399169922 -426.43402099609375 22178.76498413086 -392.55401611328125Q22145.3759765625 -358.67401123046875 22145.3759765625 -294.2760009765625V0.0Z M22946.484008789062 0.0V-489.6199951171875H23030.3759765625V0.0ZM22988.42999267578 -564.2080078125Q22962.085998535156 -564.2080078125 22944.009002685547 -581.7420043945312Q22925.932006835938 -599.2760009765625 22925.932006835938 -626.343994140625Q22925.932006835938 -654.0499877929688 22944.009002685547 -671.2649841308594Q22962.085998535156 -688.47998046875 22988.42999267578 -688.47998046875Q23015.773986816406 -688.47998046875 23033.350982666016 -671.2649841308594Q23050.927978515625 -654.0499877929688 23050.927978515625 -626.343994140625Q23050.927978515625 -599.2760009765625 23033.350982666016 -581.7420043945312Q23015.773986816406 -564.2080078125 22988.42999267578 -564.2080078125Z M23400.552001953125 0.0Q23357.932006835938 0.0 23334.45001220703 -23.800994873046875Q23310.968017578125 -47.60198974609375 23310.968017578125 -89.031982421875V-417.52001953125H23166.552001953125V-489.6199951171875H23310.968017578125V-661.4840087890625H23394.859985351562V-489.6199951171875H23552.552001953125V-417.52001953125H23394.859985351562V-102.0999755859375Q23394.859985351562 -72.0999755859375 23424.135986328125 -72.0999755859375H23531.619995117188V0.0Z M23903.190002441406 14.0Q23811.932006835938 14.0 23749.613006591797 -28.0Q23687.294006347656 -70.0 23673.656005859375 -160.12200927734375L23753.289978027344 -178.0Q23760.927978515625 -131.5159912109375 23782.531982421875 -104.81698608398438Q23804.135986328125 -78.11798095703125 23835.65399169922 -66.74697875976562Q23867.171997070312 -55.3759765625 23903.190002441406 -55.3759765625Q23957.398010253906 -55.3759765625 23988.287017822266 -76.61798095703125Q24019.176025390625 -97.8599853515625 24019.176025390625 -133.6199951171875Q24019.176025390625 -170.01800537109375 23989.925018310547 -185.38900756835938Q23960.67401123047 -200.760009765625 23908.380004882812 -210.0360107421875L23868.89599609375 -216.95001220703125Q23820.723999023438 -225.67401123046875 23781.552001953125 -242.5360107421875Q23742.380004882812 -259.39801025390625 23719.251007080078 -288.4840087890625Q23696.122009277344 -317.57000732421875 23696.122009277344 -362.10400390625Q23696.122009277344 -429.08599853515625 23747.251007080078 -466.3529968261719Q23798.380004882812 -503.6199951171875 23882.552001953125 -503.6199951171875Q23965.552001953125 -503.6199951171875 24017.68099975586 -466.3009948730469Q24069.809997558594 -428.98199462890625 24084.25799560547 -361.9639892578125L24006.176025390625 -341.2760009765625Q23996.900024414062 -392.0360107421875 23964.106018066406 -413.1400146484375Q23931.31201171875 -434.2440185546875 23882.552001953125 -434.2440185546875Q23834.42999267578 -434.2440185546875 23806.497985839844 -416.3210144042969Q23778.565979003906 -398.39801025390625 23778.565979003906 -364.2760009765625Q23778.565979003906 -330.0679931640625 23804.94598388672 -314.10198974609375Q23831.32598876953 -298.135986328125 23876.809997558594 -290.22198486328125L23916.294006347656 -283.3079833984375Q23968.46600341797 -274.583984375 24010.457000732422 -258.72198486328125Q24052.447998046875 -242.8599853515625 24077.03399658203 -213.95498657226562Q24101.619995117188 -185.04998779296875 24101.619995117188 -136.87799072265625Q24101.619995117188 -64.6199951171875 24047.990997314453 -25.30999755859375Q23994.36199951172 14.0 23903.190002441406 14.0Z M24252.809997558594 127.22198486328125V75.80999755859375H24282.239990234375Q24319.307983398438 75.80999755859375 24319.307983398438 38.74200439453125V6.74200439453125H24304.859985351562Q24275.067993164062 6.74200439453125 24254.947998046875 -11.834991455078125Q24234.828002929688 -30.4119873046875 24234.828002929688 -59.11798095703125Q24234.828002929688 -88.90997314453125 24254.947998046875 -107.84896850585938Q24275.067993164062 -126.7879638671875 24304.859985351562 -126.7879638671875Q24335.01397705078 -126.7879638671875 24354.95297241211 -107.02996826171875Q24374.891967773438 -87.27197265625 24374.891967773438 -56.39398193359375V38.19000244140625Q24374.891967773438 127.22198486328125 24286.497985839844 127.22198486328125Z M24823.484008789062 0.0V-489.6199951171875H24905.3759765625V-430.42999267578125H24919.547973632812Q24932.461975097656 -462.343994140625 24959.23797607422 -476.98199462890625Q24986.01397705078 -491.6199951171875 25029.583984375 -491.6199951171875H25087.669982910156V-415.3480224609375H25024.393981933594Q24971.927978515625 -415.3480224609375 24939.651977539062 -386.3390197753906Q24907.3759765625 -357.33001708984375 24907.3759765625 -296.0360107421875V0.0Z M25453.2080078125 14.0Q25378.57000732422 14.0 25322.7080078125 -17.5Q25266.84600830078 -49.0 25235.665008544922 -106.18099975585938Q25204.484008789062 -163.36199951171875 25204.484008789062 -238.80999755859375V-250.80999755859375Q25204.484008789062 -326.89599609375 25235.484008789062 -383.75799560546875Q25266.484008789062 -440.6199951171875 25321.52700805664 -472.1199951171875Q25376.57000732422 -503.6199951171875 25448.018005371094 -503.6199951171875Q25517.828002929688 -503.6199951171875 25570.871002197266 -473.6719970703125Q25623.914001464844 -443.7239990234375 25653.914001464844 -388.7760009765625Q25683.914001464844 -333.8280029296875 25683.914001464844 -259.10400390625V-223.12200927734375H25289.099975585938Q25291.73797607422 -146.60198974609375 25338.26498413086 -103.43698120117188Q25384.7919921875 -60.27197265625 25454.656005859375 -60.27197265625Q25517.226013183594 -60.27197265625 25550.20101928711 -88.3759765625Q25583.176025390625 -116.47998046875 25600.642028808594 -155.32598876953125L25672.380004882812 -120.46600341796875Q25657.74200439453 -90.0 25631.24200439453 -58.86199951171875Q25604.74200439453 -27.7239990234375 25562.018005371094 -6.86199951171875Q25519.294006347656 14.0 25453.2080078125 14.0ZM25290.099975585938 -290.32598876953125H25598.660034179688Q25594.660034179688 -356.29400634765625 25553.633026123047 -392.8210144042969Q25512.606018066406 -429.3480224609375 25447.656005859375 -429.3480224609375Q25382.619995117188 -429.3480224609375 25341.135986328125 -392.8210144042969Q25299.651977539062 -356.29400634765625 25290.099975585938 -290.32598876953125Z M26025.552001953125 0.0Q25982.932006835938 0.0 25959.45001220703 -23.800994873046875Q25935.968017578125 -47.60198974609375 25935.968017578125 -89.031982421875V-417.52001953125H25791.552001953125V-489.6199951171875H25935.968017578125V-661.4840087890625H26019.859985351562V-489.6199951171875H26177.552001953125V-417.52001953125H26019.859985351562V-102.0999755859375Q26019.859985351562 -72.0999755859375 26049.135986328125 -72.0999755859375H26156.619995117188V0.0Z M26330.484008789062 0.0V-489.6199951171875H26412.3759765625V-430.42999267578125H26426.547973632812Q26439.461975097656 -462.343994140625 26466.23797607422 -476.98199462890625Q26493.01397705078 -491.6199951171875 26536.583984375 -491.6199951171875H26594.669982910156V-415.3480224609375H26531.393981933594Q26478.927978515625 -415.3480224609375 26446.651977539062 -386.3390197753906Q26414.3759765625 -357.33001708984375 26414.3759765625 -296.0360107421875V0.0Z M26735.484008789062 0.0V-489.6199951171875H26819.3759765625V0.0ZM26777.42999267578 -564.2080078125Q26751.085998535156 -564.2080078125 26733.009002685547 -581.7420043945312Q26714.932006835938 -599.2760009765625 26714.932006835938 -626.343994140625Q26714.932006835938 -654.0499877929688 26733.009002685547 -671.2649841308594Q26751.085998535156 -688.47998046875 26777.42999267578 -688.47998046875Q26804.773986816406 -688.47998046875 26822.350982666016 -671.2649841308594Q26839.927978515625 -654.0499877929688 26839.927978515625 -626.343994140625Q26839.927978515625 -599.2760009765625 26822.350982666016 -581.7420043945312Q26804.773986816406 -564.2080078125 26777.42999267578 -564.2080078125Z M27233.2080078125 14.0Q27158.57000732422 14.0 27102.7080078125 -17.5Q27046.84600830078 -49.0 27015.665008544922 -106.18099975585938Q26984.484008789062 -163.36199951171875 26984.484008789062 -238.80999755859375V-250.80999755859375Q26984.484008789062 -326.89599609375 27015.484008789062 -383.75799560546875Q27046.484008789062 -440.6199951171875 27101.52700805664 -472.1199951171875Q27156.57000732422 -503.6199951171875 27228.018005371094 -503.6199951171875Q27297.828002929688 -503.6199951171875 27350.871002197266 -473.6719970703125Q27403.914001464844 -443.7239990234375 27433.914001464844 -388.7760009765625Q27463.914001464844 -333.8280029296875 27463.914001464844 -259.10400390625V-223.12200927734375H27069.099975585938Q27071.73797607422 -146.60198974609375 27118.26498413086 -103.43698120117188Q27164.7919921875 -60.27197265625 27234.656005859375 -60.27197265625Q27297.226013183594 -60.27197265625 27330.20101928711 -88.3759765625Q27363.176025390625 -116.47998046875 27380.642028808594 -155.32598876953125L27452.380004882812 -120.46600341796875Q27437.74200439453 -90.0 27411.24200439453 -58.86199951171875Q27384.74200439453 -27.7239990234375 27342.018005371094 -6.86199951171875Q27299.294006347656 14.0 27233.2080078125 14.0ZM27070.099975585938 -290.32598876953125H27378.660034179688Q27374.660034179688 -356.29400634765625 27333.633026123047 -392.8210144042969Q27292.606018066406 -429.3480224609375 27227.656005859375 -429.3480224609375Q27162.619995117188 -429.3480224609375 27121.135986328125 -392.8210144042969Q27079.651977539062 -356.29400634765625 27070.099975585938 -290.32598876953125Z M27822.190002441406 14.0Q27730.932006835938 14.0 27668.613006591797 -28.0Q27606.294006347656 -70.0 27592.656005859375 -160.12200927734375L27672.289978027344 -178.0Q27679.927978515625 -131.5159912109375 27701.531982421875 -104.81698608398438Q27723.135986328125 -78.11798095703125 27754.65399169922 -66.74697875976562Q27786.171997070312 -55.3759765625 27822.190002441406 -55.3759765625Q27876.398010253906 -55.3759765625 27907.287017822266 -76.61798095703125Q27938.176025390625 -97.8599853515625 27938.176025390625 -133.6199951171875Q27938.176025390625 -170.01800537109375 27908.925018310547 -185.38900756835938Q27879.67401123047 -200.760009765625 27827.380004882812 -210.0360107421875L27787.89599609375 -216.95001220703125Q27739.723999023438 -225.67401123046875 27700.552001953125 -242.5360107421875Q27661.380004882812 -259.39801025390625 27638.251007080078 -288.4840087890625Q27615.122009277344 -317.57000732421875 27615.122009277344 -362.10400390625Q27615.122009277344 -429.08599853515625 27666.251007080078 -466.3529968261719Q27717.380004882812 -503.6199951171875 27801.552001953125 -503.6199951171875Q27884.552001953125 -503.6199951171875 27936.68099975586 -466.3009948730469Q27988.809997558594 -428.98199462890625 28003.25799560547 -361.9639892578125L27925.176025390625 -341.2760009765625Q27915.900024414062 -392.0360107421875 27883.106018066406 -413.1400146484375Q27850.31201171875 -434.2440185546875 27801.552001953125 -434.2440185546875Q27753.42999267578 -434.2440185546875 27725.497985839844 -416.3210144042969Q27697.565979003906 -398.39801025390625 27697.565979003906 -364.2760009765625Q27697.565979003906 -330.0679931640625 27723.94598388672 -314.10198974609375Q27750.32598876953 -298.135986328125 27795.809997558594 -290.22198486328125L27835.294006347656 -283.3079833984375Q27887.46600341797 -274.583984375 27929.457000732422 -258.72198486328125Q27971.447998046875 -242.8599853515625 27996.03399658203 -213.95498657226562Q28020.619995117188 -185.04998779296875 28020.619995117188 -136.87799072265625Q28020.619995117188 -64.6199951171875 27966.990997314453 -25.30999755859375Q27913.36199951172 14.0 27822.190002441406 14.0Z"/>
  </g>
</svg>
