<svg xmlns="http://www.w3.org/2000/svg" viewBox="0 0 2334 512">
  <path fill="#23264B" fill-rule="evenodd" d="M 20.0 256.0 A 236.0 236.0 0 1 0 492.0 256.0 A 236.0 236.0 0 1 0 20.0 256.0 Z M 44.0 274.0 L 468.0 274.0 C 472.0 214.0 440.0 172.0 392.0 146.0 C 384.0 118.0 368.0 82.0 356.0 64.0 C 338.0 90.0 314.0 122.0 298.0 134.0 C 290.0 156.0 222.0 156.0 214.0 134.0 C 198.0 122.0 174.0 90.0 156.0 64.0 C 144.0 82.0 128.0 118.0 120.0 146.0 C 72.0 172.0 40.0 214.0 44.0 274.0 Z"/>
  <g transform="translate(640.0 339.0) scale(0.34156)">
    <path fill="#23264B" d="M76.299560546875 0.0V-492.500244140625H177.201171875V-418.7508544921875H193.101318359375Q207.201171875 -449.300537109375 243.0009765625 -475.2503662109375Q278.80078125 -501.2001953125 349.6505126953125 -501.2001953125Q405.900634765625 -501.2001953125 449.57562255859375 -476.27508544921875Q493.2506103515625 -451.3499755859375 518.1255493164062 -405.5499267578125Q543.00048828125 -359.7498779296875 543.00048828125 -296.0V0.0H440.098876953125V-288.099853515625Q440.098876953125 -352.499267578125 408.22418212890625 -382.9490966796875Q376.3494873046875 -413.39892578125 319.7498779296875 -413.39892578125Q255.80029296875 -413.39892578125 217.500732421875 -371.0491943359375Q179.201171875 -328.699462890625 179.201171875 -248.8502197265625V0.0Z M787.7493896484375 200.0V109.5986328125H1062.6490478515625Q1091.3489990234375 109.5986328125 1091.3489990234375 79.5986328125V-71.6495361328125H1075.4488525390625Q1066.0489501953125 -52.19970703125 1047.4740600585938 -33.62481689453125Q1028.899169921875 -15.0499267578125 997.9743041992188 -3.17498779296875Q967.0494384765625 8.699951171875 919.599609375 8.699951171875Q863.699462890625 8.699951171875 819.8494873046875 -16.22515869140625Q775.99951171875 -41.1502685546875 751.1245727539062 -87.100341796875Q726.2496337890625 -133.0504150390625 726.2496337890625 -196.1502685546875V-492.500244140625H829.1512451171875V-204.0504150390625Q829.1512451171875 -140.0009765625 861.0259399414062 -109.5511474609375Q892.900634765625 -79.101318359375 949.500244140625 -79.101318359375Q1013.4498291015625 -79.101318359375 1051.7493896484375 -121.27606201171875Q1090.0489501953125 -163.4508056640625 1090.0489501953125 -243.300048828125V-492.500244140625H1192.9505615234375V100.59912109375Q1192.9505615234375 146.3494873046875 1166.6253051757812 173.17474365234375Q1140.300048828125 200.0 1094.1497802734375 200.0Z M1537.5496826171875 14.0Q1485.2496337890625 14.0 1443.4246215820312 -4.1500244140625Q1401.599609375 -22.300048828125 1377.2745971679688 -57.27508544921875Q1352.9495849609375 -92.2501220703125 1352.9495849609375 -142.2001953125Q1352.9495849609375 -192.500244140625 1377.2745971679688 -226.12530517578125Q1401.599609375 -259.7503662109375 1444.2246704101562 -276.72540283203125Q1486.8497314453125 -293.700439453125 1540.7498779296875 -293.700439453125H1691.4488525390625V-325.5501708984375Q1691.4488525390625 -368.9495849609375 1665.2491455078125 -395.12432861328125Q1639.0494384765625 -421.299072265625 1585.099853515625 -421.299072265625Q1532.1502685546875 -421.299072265625 1504.0756225585938 -396.29931640625Q1476.0009765625 -371.299560546875 1466.901123046875 -330.6500244140625L1371.19970703125 -361.9505615234375Q1383.19970703125 -401.700439453125 1409.5247192382812 -434.2503662109375Q1435.8497314453125 -466.80029296875 1479.8247680664062 -486.6502685546875Q1523.7998046875 -506.500244140625 1586.39990234375 -506.500244140625Q1682.300048828125 -506.500244140625 1737.0252075195312 -457.8502197265625Q1791.7503662109375 -409.2001953125 1791.7503662109375 -318.6500244140625V-115.80126953125Q1791.7503662109375 -85.80126953125 1819.7503662109375 -85.80126953125H1862.2001953125V0.0H1785.19970703125Q1750.299560546875 0.0 1728.3994140625 -18.17498779296875Q1706.499267578125 -36.3499755859375 1706.499267578125 -67.0499267578125V-70.1497802734375H1690.6490478515625Q1683.499267578125 -54.6500244140625 1667.2244262695312 -34.62506103515625Q1650.9495849609375 -14.60009765625 1619.899658203125 -0.300048828125Q1588.8497314453125 14.0 1537.5496826171875 14.0ZM1553.2501220703125 -71.201171875Q1614.6495361328125 -71.201171875 1653.0491943359375 -106.6507568359375Q1691.4488525390625 -142.100341796875 1691.4488525390625 -203.699462890625V-214.3994140625H1546.9500732421875Q1506.00048828125 -214.3994140625 1480.9258422851562 -196.77459716796875Q1455.8511962890625 -179.1497802734375 1455.8511962890625 -145.1502685546875Q1455.8511962890625 -111.1507568359375 1481.9258422851562 -91.17596435546875Q1508.00048828125 -71.201171875 1553.2501220703125 -71.201171875Z M2002.299560546875 200.0V-492.500244140625H2103.201171875V-422.3509521484375H2119.101318359375Q2137.501220703125 -455.20068359375 2176.4760131835938 -480.8504638671875Q2215.4508056640625 -506.500244140625 2287.00048828125 -506.500244140625Q2348.7503662109375 -506.500244140625 2400.4503173828125 -476.6502685546875Q2452.1502685546875 -446.80029296875 2483.3252563476562 -390.1502685546875Q2514.500244140625 -333.500244140625 2514.500244140625 -253.5501708984375V-238.9500732421875Q2514.500244140625 -159.3499755859375 2483.500244140625 -102.52496337890625Q2452.500244140625 -45.699951171875 2400.80029296875 -15.8499755859375Q2349.100341796875 14.0 2287.00048828125 14.0Q2239.20068359375 14.0 2206.2508544921875 2.10009765625Q2173.301025390625 -9.7998046875 2153.0511474609375 -28.57464599609375Q2132.80126953125 -47.3494873046875 2121.101318359375 -66.79931640625H2105.201171875V200.0ZM2257.39990234375 -76.4013671875Q2324.79931640625 -76.4013671875 2367.8489990234375 -119.32598876953125Q2410.898681640625 -162.2506103515625 2410.898681640625 -241.60009765625V-250.900146484375Q2410.898681640625 -330.2496337890625 2367.5239868164062 -373.17425537109375Q2324.1492919921875 -416.098876953125 2257.39990234375 -416.098876953125Q2191.00048828125 -416.098876953125 2147.4508056640625 -373.17425537109375Q2103.901123046875 -330.2496337890625 2103.901123046875 -250.900146484375V-241.60009765625Q2103.901123046875 -162.2506103515625 2147.4508056640625 -119.32598876953125Q2191.00048828125 -76.4013671875 2257.39990234375 -76.4013671875Z M2683.299560546875 0.0V-492.500244140625H2784.201171875V-434.7503662109375H2800.101318359375Q2812.1512451171875 -465.80029296875 2838.3511962890625 -480.1502685546875Q2864.5511474609375 -494.500244140625 2903.80078125 -494.500244140625H2962.7508544921875V-402.098876953125H2900.0509033203125Q2849.60107421875 -402.098876953125 2817.901123046875 -374.67401123046875Q2786.201171875 -347.2491455078125 2786.201171875 -289.699462890625V0.0Z M3341.39990234375 14.0Q3267.39990234375 14.0 3209.6248168945312 -16.52496337890625Q3151.8497314453125 -47.0499267578125 3119.0746459960938 -103.87493896484375Q3086.299560546875 -160.699951171875 3086.299560546875 -238.9500732421875V-253.5501708984375Q3086.299560546875 -331.80029296875 3119.0746459960938 -388.62530517578125Q3151.8497314453125 -445.4503173828125 3209.6248168945312 -475.97528076171875Q3267.39990234375 -506.500244140625 3341.39990234375 -506.500244140625Q3415.39990234375 -506.500244140625 3473.1749877929688 -475.97528076171875Q3530.9500732421875 -445.4503173828125 3563.7251586914062 -388.62530517578125Q3596.500244140625 -331.80029296875 3596.500244140625 -253.5501708984375V-238.9500732421875Q3596.500244140625 -160.699951171875 3563.7251586914062 -103.87493896484375Q3530.9500732421875 -47.0499267578125 3473.1749877929688 -16.52496337890625Q3415.39990234375 14.0 3341.39990234375 14.0ZM3341.39990234375 -77.701416015625Q3409.19921875 -77.701416015625 3451.39892578125 -121.1510009765625Q3493.5986328125 -164.6005859375 3493.5986328125 -241.60009765625V-250.900146484375Q3493.5986328125 -327.899658203125 3451.7239379882812 -371.3492431640625Q3409.8492431640625 -414.798828125 3341.39990234375 -414.798828125Q3273.9505615234375 -414.798828125 3231.5758666992188 -371.3492431640625Q3189.201171875 -327.899658203125 3189.201171875 -250.900146484375V-241.60009765625Q3189.201171875 -164.6005859375 3231.5758666992188 -121.1510009765625Q3273.9505615234375 -77.701416015625 3341.39990234375 -77.701416015625Z M3723.3994140625 0.0 3911.4488525390625 -248.9500732421875 3727.1492919921875 -492.500244140625H3848.301025390625L3977.39990234375 -315.60107421875H3993.300048828125L4122.39892578125 -492.500244140625H4243.5506591796875L4059.2510986328125 -248.9500732421875L4247.300537109375 0.0H4124.498779296875L3993.300048828125 -180.9990234375H3977.39990234375L3846.201171875 0.0Z M4454.7493896484375 200.0V109.5986328125H4729.6490478515625Q4758.3489990234375 109.5986328125 4758.3489990234375 79.5986328125V-71.6495361328125H4742.4488525390625Q4733.0489501953125 -52.19970703125 4714.474060058594 -33.62481689453125Q4695.899169921875 -15.0499267578125 4664.974304199219 -3.17498779296875Q4634.0494384765625 8.699951171875 4586.599609375 8.699951171875Q4530.699462890625 8.699951171875 4486.8494873046875 -16.22515869140625Q4442.99951171875 -41.1502685546875 4418.124572753906 -87.100341796875Q4393.2496337890625 -133.0504150390625 4393.2496337890625 -196.1502685546875V-492.500244140625H4496.1512451171875V-204.0504150390625Q4496.1512451171875 -140.0009765625 4528.025939941406 -109.5511474609375Q4559.900634765625 -79.101318359375 4616.500244140625 -79.101318359375Q4680.4498291015625 -79.101318359375 4718.7493896484375 -121.27606201171875Q4757.0489501953125 -163.4508056640625 4757.0489501953125 -243.300048828125V-492.500244140625H4859.9505615234375V100.59912109375Q4859.9505615234375 146.3494873046875 4833.625305175781 173.17474365234375Q4807.300048828125 200.0 4761.1497802734375 200.0Z"/>
  </g>
</svg>
